<svg xmlns="http://www.w3.org/2000/svg" version="1.1" xmlns:xlink="http://www.w3.org/1999/xlink" xmlns:svgjs="http://svgjs.dev/svgjs" width="1440" height="560" preserveAspectRatio="none" viewBox="0 0 1440 560">
  <g mask="url(&quot;#SvgjsMask1034&quot;)" fill="none">
    <rect width="1440" height="560" x="0" y="0" fill="rgba(24, 124, 55, 1)"></rect>
    <path d="M0,328.033C67.624,329.875,136.324,336.014,197.802,307.785C264.485,277.165,331.316,231.857,358.167,163.569C384.7,96.09,356.149,21.595,337.926,-48.586C321.487,-111.897,290.366,-166.632,257.711,-223.308C217.171,-293.668,197.574,-387.362,123.527,-420.693C49.015,-454.233,-41.511,-427.113,-114.804,-390.986C-182.072,-357.829,-212.093,-282.815,-264.678,-229.344C-321.91,-171.148,-414.053,-141.093,-437.456,-62.897C-461.324,16.851,-433.104,107.627,-386.088,176.321C-341.986,240.757,-263.67,268.639,-190.996,297.196C-129.733,321.269,-65.799,326.241,0,328.033" fill="#14652e"></path>
    <path d="M1440 1247.842C1566.035 1260.576 1660.281 1136.701 1762.8220000000001 1062.32 1859.444 992.233 1982.8020000000001 938.525 2021.9 825.745 2060.457 714.525 1976.079 601.788 1963.031 484.799 1949.391 362.502 2031.1799999999998 210.06900000000002 1943.594 123.63299999999998 1854.086 35.29899999999998 1696.805 131.288 1574.629 101.495 1461.232 73.84199999999998 1379.793-46.49699999999996 1263.149-42.298 1138.7069999999999-37.817999999999984 1014.489 26.69799999999998 937.332 124.43599999999998 861.22 220.85000000000002 874.018 354.548 854.17 475.77 833.875 599.718 756.966 734.463 819.625 843.316 882.768 953.011 1050.5230000000001 931.932 1156.545 1001.065 1263.651 1070.906 1312.783 1234.989 1440 1247.842" fill="#7c2c4d"></path>
  </g>
  <defs>
    <mask id="SvgjsMask1034">
      <rect width="1440" height="560" fill="#ffffff"></rect>
    </mask>
  </defs>
</svg>